<svg width="15" height="15" viewBox="0 0 15 15" fill="none" xmlns="http://www.w3.org/2000/svg">
<g clip-path="url(#clip0_151_3733)">
<path d="M14.5312 0.298828H0.46875C0.34443 0.298828 0.225201 0.348214 0.137294 0.436122C0.049386 0.52403 0 0.643258 0 0.767578L0 10.6175C0 10.7418 0.049386 10.861 0.137294 10.9489C0.225201 11.0368 0.34443 11.0862 0.46875 11.0862H7.58396L7.5818 14.2322C7.58175 14.3141 7.60315 14.3945 7.64388 14.4656C7.68461 14.5366 7.74324 14.5958 7.81393 14.6371C7.88463 14.6784 7.96492 14.7005 8.04681 14.7012C8.1287 14.7018 8.20933 14.681 8.28067 14.6408L10.0281 13.6561L11.7755 14.6408C11.8468 14.681 11.9275 14.7018 12.0094 14.7012C12.0913 14.7005 12.1715 14.6784 12.2422 14.6371C12.3129 14.5958 12.3716 14.5366 12.4123 14.4656C12.453 14.3945 12.4744 14.3141 12.4744 14.2322L12.4722 11.083L14.5305 11.0862C14.5921 11.0863 14.6532 11.0743 14.7101 11.0508C14.7671 11.0272 14.8188 10.9927 14.8624 10.9492C14.9061 10.9057 14.9406 10.854 14.9642 10.797C14.9879 10.7401 15 10.6791 15 10.6175V0.767578C15 0.643258 14.9506 0.52403 14.8627 0.436122C14.7748 0.348214 14.6556 0.298828 14.5312 0.298828ZM10.0285 10.9574C9.644 10.9574 9.26814 10.8434 8.94845 10.6298C8.62876 10.4162 8.37959 10.1126 8.23245 9.75733C8.08531 9.4021 8.04682 9.01122 8.12183 8.63412C8.19684 8.25701 8.38199 7.91062 8.65387 7.63874C8.92575 7.36686 9.27215 7.1817 9.64925 7.10669C10.0264 7.03168 10.4172 7.07018 10.7725 7.21731C11.1277 7.36445 11.4313 7.61362 11.6449 7.93331C11.8586 8.25301 11.9726 8.62887 11.9726 9.01336C11.972 9.52879 11.767 10.0229 11.4025 10.3874C11.0381 10.7519 10.5439 10.9569 10.0285 10.9574ZM10.2582 12.7097C10.188 12.6701 10.1087 12.6493 10.0281 12.6493C9.94746 12.6493 9.8682 12.6701 9.79796 12.7097L8.51985 13.4299L8.5212 11.4683C8.97433 11.7471 9.49595 11.8948 10.028 11.8949C10.5601 11.895 11.0818 11.7475 11.535 11.4688L11.5363 13.4299L10.2582 12.7097ZM14.0625 10.148L12.678 10.1458C12.8655 9.70744 12.9412 9.22939 12.8985 8.75453C12.8557 8.27967 12.6958 7.82284 12.4331 7.42499C12.1703 7.02714 11.813 6.7007 11.393 6.47492C10.9731 6.24915 10.5037 6.13111 10.0269 6.13137C9.55013 6.13164 9.08086 6.2502 8.66117 6.47643C8.24148 6.70267 7.88449 7.02951 7.62219 7.42765C7.35989 7.82579 7.20048 8.2828 7.15824 8.75771C7.11601 9.23261 7.19228 9.71058 7.38021 10.1488H0.9375V1.23633H14.0625V10.148ZM2.20333 2.97088C2.20333 2.84656 2.25272 2.72733 2.34062 2.63942C2.42853 2.55152 2.54776 2.50213 2.67208 2.50213H8.9896C9.11392 2.50213 9.23315 2.55152 9.32106 2.63942C9.40896 2.72733 9.45835 2.84656 9.45835 2.97088C9.45835 3.0952 9.40896 3.21443 9.32106 3.30234C9.23315 3.39024 9.11392 3.43963 8.9896 3.43963H2.67208C2.54776 3.43963 2.42853 3.39024 2.34062 3.30234C2.25272 3.21443 2.20333 3.0952 2.20333 2.97088ZM2.20333 5.09783C2.20333 4.97351 2.25272 4.85428 2.34062 4.76638C2.42853 4.67847 2.54776 4.62908 2.67208 4.62908H6.25802C6.38234 4.62908 6.50157 4.67847 6.58947 4.76638C6.67738 4.85428 6.72677 4.97351 6.72677 5.09783C6.72677 5.22215 6.67738 5.34138 6.58947 5.42929C6.50157 5.5172 6.38234 5.56658 6.25802 5.56658H2.67208C2.54777 5.56658 2.42854 5.5172 2.34063 5.4293C2.25273 5.3414 2.20334 5.22218 2.20333 5.09786V5.09783Z" fill="#343434"/>
</g>
<defs>
<clipPath id="clip0_151_3733">
<rect width="15" height="15" fill="white"/>
</clipPath>
</defs>
</svg>
