<svg width="16" height="16" viewBox="0 0 16 16" fill="none" xmlns="http://www.w3.org/2000/svg">
<path d="M13.1524 0H3.17293C2.70768 0 2.32918 0.3785 2.32918 0.84375V2.02566H1.82715C1.56827 2.02566 1.3584 2.23553 1.3584 2.49441C1.3584 2.75328 1.56827 2.96316 1.82715 2.96316H2.32918V4.77844H1.82715C1.56827 4.77844 1.3584 4.98831 1.3584 5.24719C1.3584 5.50606 1.56827 5.71594 1.82715 5.71594H2.32918V7.53125H1.82715C1.56827 7.53125 1.3584 7.74112 1.3584 8C1.3584 8.25888 1.56827 8.46875 1.82715 8.46875H2.32918V10.2841H1.82715C1.56827 10.2841 1.3584 10.4939 1.3584 10.7528C1.3584 11.0117 1.56827 11.2216 1.82715 11.2216H2.32918V13.0368H1.82715C1.56827 13.0368 1.3584 13.2467 1.3584 13.5056C1.3584 13.7645 1.56827 13.9743 1.82715 13.9743H2.32918V15.1562C2.32918 15.6215 2.70768 16 3.17293 16H13.1524C13.9735 16 14.6415 15.332 14.6415 14.5109V1.48906C14.6415 0.667969 13.9735 0 13.1524 0V0ZM13.704 14.5109C13.704 14.8151 13.4566 15.0625 13.1524 15.0625H3.26668V13.9743H3.76871C4.02759 13.9743 4.23746 13.7645 4.23746 13.5056C4.23746 13.2467 4.02759 13.0368 3.76871 13.0368H3.26668V11.2216H3.76871C4.02759 11.2216 4.23746 11.0117 4.23746 10.7528C4.23746 10.4939 4.02759 10.2841 3.76871 10.2841H3.26668V8.46875H3.76871C4.02759 8.46875 4.23746 8.25888 4.23746 8C4.23746 7.74112 4.02759 7.53125 3.76871 7.53125H3.26668V5.71594H3.76871C4.02759 5.71594 4.23746 5.50606 4.23746 5.24719C4.23746 4.98831 4.02759 4.77844 3.76871 4.77844H3.26668V2.96316H3.76871C4.02759 2.96316 4.23746 2.75328 4.23746 2.49441C4.23746 2.23553 4.02759 2.02566 3.76871 2.02566H3.26668V0.9375H13.1524C13.4565 0.9375 13.704 1.18491 13.704 1.48906V14.5109Z" fill="#343434"/>
<path d="M11.8298 13.0371H9.59375C9.33487 13.0371 9.125 13.247 9.125 13.5059C9.125 13.7647 9.33487 13.9746 9.59375 13.9746H11.8298C12.0887 13.9746 12.2986 13.7647 12.2986 13.5059C12.2986 13.247 12.0887 13.0371 11.8298 13.0371Z" fill="#343434"/>
<path d="M11.83 2.02539H6.1001C5.84122 2.02539 5.63135 2.23527 5.63135 2.49414V5.03764C5.63135 5.29652 5.84122 5.50639 6.1001 5.50639H11.83C12.0888 5.50639 12.2987 5.29652 12.2987 5.03764V2.49414C12.2987 2.23527 12.0888 2.02539 11.83 2.02539ZM11.3612 4.56889H6.56885V2.96289H11.3612V4.56889Z" fill="#343434"/>
</svg>
