<svg width="19" height="19" viewBox="0 0 19 19" fill="none" xmlns="http://www.w3.org/2000/svg">
<g clip-path="url(#clip0_151_3738)">
<path d="M4.66455 4.67578C4.45971 4.67578 4.29346 4.84203 4.29346 5.04688C4.29346 5.25172 4.45971 5.41797 4.66455 5.41797C4.86939 5.41797 5.03564 5.25172 5.03564 5.04688C5.03564 4.84203 4.86939 4.67578 4.66455 4.67578Z" fill="#343434"/>
<path d="M18.0196 11.9486C17.1993 10.5279 15.3855 10.0416 13.9645 10.8621L12.4572 11.7323V8.50988C12.4572 8.11152 12.3255 7.71619 12.0862 7.39668L10.2308 4.92293V3.86954C10.6627 3.71636 10.9729 3.30392 10.9729 2.82013V1.11321C10.9729 0.499381 10.4735 0 9.85966 0H3.18031C2.56648 0 2.06706 0.499381 2.06706 1.11321V2.82016C2.06706 3.30388 2.37734 3.71639 2.80921 3.86958V4.92297L0.953709 7.39686C0.714502 7.71623 0.582764 8.11152 0.582764 8.50988V15.6965C0.582764 16.7196 1.41509 17.5518 2.43812 17.5518H8.40167C9.2337 18.9465 11.0278 19.4133 12.4341 18.6013L16.9331 16.0037C18.3416 15.1904 18.844 13.3772 18.0196 11.9486ZM2.80921 1.11321C2.80921 0.908586 2.97569 0.742113 3.18027 0.742113H9.85962C10.0642 0.742113 10.2307 0.908586 10.2307 1.11321V2.82016C10.2307 3.02479 10.0642 3.19122 9.85962 3.19122H3.18031C2.97569 3.19122 2.80925 3.02475 2.80925 2.82016V1.11321H2.80921ZM1.54761 7.84192L3.47715 5.26927C3.52531 5.20507 3.55137 5.12692 3.55137 5.04662V3.93341H9.48857V4.67556H6.14891C5.94399 4.67556 5.77782 4.84173 5.77782 5.04665C5.77782 5.25157 5.94399 5.41775 6.14891 5.41775H9.67411L11.4922 7.8418C11.611 8.00045 11.6848 8.19026 11.7072 8.38635H1.33282C1.35508 8.19022 1.42889 8.00041 1.54761 7.84192ZM2.43816 16.8097C1.82433 16.8097 1.32495 16.3103 1.32495 15.6965V15.3217H8.0668C7.94912 15.8028 7.9499 16.3167 8.08465 16.8097H2.43816V16.8097ZM8.35784 14.5832H1.32491V9.12842H11.715V12.1607L9.46549 13.4596C8.99646 13.7306 8.61735 14.1163 8.35784 14.5832ZM12.0631 17.9585C10.9982 18.5735 9.63738 18.2098 9.02203 17.1441C8.40375 16.0682 8.77844 14.7135 9.83665 14.1023L11.8508 12.9394L14.0773 16.7956L12.0631 17.9585ZM16.562 15.361L14.72 16.4245L12.4935 12.5682L14.3356 11.5048C15.4012 10.8896 16.7615 11.2539 17.3769 12.3196C17.9949 13.3907 17.6191 14.7506 16.562 15.361Z" fill="#343434"/>
</g>
<defs>
<clipPath id="clip0_151_3738">
<rect width="19" height="19" fill="white"/>
</clipPath>
</defs>
</svg>
