<svg width="18" height="18" viewBox="0 0 18 18" fill="none" xmlns="http://www.w3.org/2000/svg">
<g clip-path="url(#clip0_151_4056)">
<path d="M11.8125 9.5625H6.1875C5.877 9.5625 5.625 9.8145 5.625 10.125C5.625 10.4355 5.877 10.6875 6.1875 10.6875H11.8125C12.123 10.6875 12.375 10.4355 12.375 10.125C12.375 9.8145 12.123 9.5625 11.8125 9.5625ZM12.9375 6.1875H5.0625C4.752 6.1875 4.5 6.4395 4.5 6.75C4.5 7.0605 4.752 7.3125 5.0625 7.3125H12.9375C13.248 7.3125 13.5 7.0605 13.5 6.75C13.5 6.4395 13.248 6.1875 12.9375 6.1875ZM9 0C4.02976 0 0 3.52574 0 7.875C0 10.3607 1.31906 12.5736 3.375 14.0169V18L7.31756 15.6077C7.86321 15.6977 8.42456 15.75 9 15.75C13.9708 15.75 18 12.2243 18 7.875C18 3.52574 13.9708 0 9 0ZM9 14.625C8.343 14.625 7.7085 14.5485 7.09874 14.4186L4.45047 16.0104L4.48591 13.4016C2.45588 12.1804 1.125 10.1621 1.125 7.875C1.125 4.14732 4.65074 1.125 9 1.125C13.3493 1.125 16.875 4.14732 16.875 7.875C16.875 11.6027 13.3493 14.625 9 14.625Z" fill="#474747"/>
</g>
<defs>
<clipPath id="clip0_151_4056">
<rect width="18" height="18" fill="white"/>
</clipPath>
</defs>
</svg>
