<svg width="16" height="16" viewBox="0 0 16 16" fill="none" xmlns="http://www.w3.org/2000/svg">
<g clip-path="url(#clip0_151_4052)">
<path d="M12.6875 10.375C11.7612 10.375 10.945 10.8307 10.4323 11.5236L5.99969 9.25387C6.07328 9.00303 6.125 8.74306 6.125 8.46875C6.125 8.09669 6.04872 7.74297 5.91694 7.41762L10.5558 4.62612C11.0721 5.232 11.8309 5.625 12.6875 5.625C14.2384 5.625 15.5 4.36341 15.5 2.8125C15.5 1.26159 14.2384 0 12.6875 0C11.1366 0 9.875 1.26159 9.875 2.8125C9.875 3.16991 9.94859 3.50894 10.0707 3.82369L5.41797 6.62337C4.90216 6.0355 4.15428 5.65625 3.3125 5.65625C1.76159 5.65625 0.5 6.91784 0.5 8.46875C0.5 10.0197 1.76159 11.2812 3.3125 11.2812C4.25406 11.2812 5.08409 10.8122 5.59484 10.0998L10.0128 12.3622C9.93147 12.6248 9.875 12.8984 9.875 13.1875C9.875 14.7384 11.1366 16 12.6875 16C14.2384 16 15.5 14.7384 15.5 13.1875C15.5 11.6366 14.2384 10.375 12.6875 10.375Z" fill="#BB9B75"/>
</g>
<defs>
<clipPath id="clip0_151_4052">
<rect width="16" height="16" fill="white"/>
</clipPath>
</defs>
</svg>
