<svg width="26" height="26" viewBox="0 0 26 26" fill="none" xmlns="http://www.w3.org/2000/svg">
<path d="M16.847 14.0801L14.6694 16.265C13.7864 17.1511 12.2327 17.1702 11.3306 16.265L9.15291 14.0801L1.33179 21.9266C1.62292 22.0612 1.9439 22.1416 2.28515 22.1416H23.7148C24.0561 22.1416 24.377 22.0613 24.668 21.9266L16.847 14.0801Z" fill="#BB9B75"/>
<path d="M23.7147 3.85938H2.28505C1.9438 3.85938 1.62281 3.93971 1.33179 4.07433L9.68921 12.4595C9.68977 12.46 9.69043 12.4601 9.69099 12.4607C9.69155 12.4613 9.69165 12.462 9.69165 12.462L12.4091 15.1885C12.6977 15.4771 13.3021 15.4771 13.5908 15.1885L16.3077 12.4625C16.3077 12.4625 16.3083 12.4613 16.3089 12.4607C16.3089 12.4607 16.3101 12.46 16.3107 12.4595L24.6679 4.07428C24.3769 3.93961 24.056 3.85938 23.7147 3.85938Z" fill="#BB9B75"/>
<path d="M0.243039 5.14062C0.0924219 5.44521 0 5.78331 0 6.14548V19.8564C0 20.2186 0.0923203 20.5567 0.242988 20.8613L8.07767 13.0012L0.243039 5.14062Z" fill="#BB9B75"/>
<path d="M25.7569 5.13867L17.9224 12.9994L25.7569 20.8595C25.9076 20.5549 26 20.2168 26 19.8546V6.14363C26 5.78136 25.9076 5.44326 25.7569 5.13867Z" fill="#BB9B75"/>
</svg>
