<svg width="28" height="28" viewBox="0 0 28 28" fill="none" xmlns="http://www.w3.org/2000/svg">
<path d="M24.7059 23.8825H27.1765C27.6313 23.8825 28 24.2512 28 24.706C28 25.1609 27.6313 25.5296 27.1765 25.5296H0.823539C0.368703 25.5296 0 25.1608 0 24.706C0 24.2512 0.368703 23.8825 0.823539 23.8825H3.2941V9.8825C3.2941 9.42766 3.6628 9.05896 4.11764 9.05896H11.5294C11.9842 9.05896 12.3529 9.42766 12.3529 9.8825V23.8825H15.647V3.29424C15.647 2.83941 16.0157 2.4707 16.4706 2.4707H23.8823C24.3371 2.4707 24.7058 2.83941 24.7058 3.29424V23.8825H24.7059ZM4.94118 10.706V23.8825H10.7059V10.706H4.94118ZM17.2941 4.11778V23.8825H23.0588V4.11778H17.2941Z" fill="#303030"/>
</svg>
