<svg width="26" height="26" viewBox="0 0 26 26" fill="none" xmlns="http://www.w3.org/2000/svg">
<path d="M13 24.5535C12.6298 24.5535 12.273 24.4194 11.9949 24.1758C10.9445 23.2574 9.93188 22.3943 9.03845 21.633L9.03389 21.629C6.41449 19.3969 4.15255 17.4691 2.57873 15.5702C0.819441 13.4473 0 11.4345 0 9.23564C0 7.09926 0.732558 5.12831 2.06259 3.68561C3.40849 2.22585 5.25525 1.42188 7.26329 1.42188C8.76411 1.42188 10.1386 1.89636 11.3484 2.83205C11.959 3.30435 12.5124 3.88239 13 4.55663C13.4878 3.88239 14.041 3.30435 14.6518 2.83205C15.8616 1.89636 17.236 1.42188 18.7369 1.42188C20.7447 1.42188 22.5917 2.22585 23.9376 3.68561C25.2676 5.12831 26 7.09926 26 9.23564C26 11.4345 25.1807 13.4473 23.4214 15.57C21.8476 17.4691 19.5859 19.3967 16.9669 21.6286C16.0718 22.3912 15.0576 23.2556 14.0049 24.1762C13.727 24.4194 13.3699 24.5535 13 24.5535ZM7.26329 2.94492C5.6857 2.94492 4.23646 3.57452 3.18215 4.7179C2.11218 5.87852 1.52284 7.48289 1.52284 9.23564C1.52284 11.085 2.21017 12.739 3.75126 14.5984C5.24077 16.3958 7.4563 18.2838 10.0215 20.47L10.0263 20.474C10.9231 21.2383 11.9397 22.1047 12.9978 23.0299C14.0622 22.1029 15.0804 21.2351 15.979 20.4696C18.544 18.2834 20.7594 16.3958 22.2489 14.5984C23.7898 12.739 24.4771 11.085 24.4771 9.23564C24.4771 7.48289 23.8878 5.87852 22.8178 4.7179C21.7637 3.57452 20.3142 2.94492 18.7369 2.94492C17.5812 2.94492 16.5201 3.31229 15.5833 4.03671C14.7484 4.68259 14.1668 5.49905 13.8258 6.07034C13.6504 6.36412 13.3418 6.53947 13 6.53947C12.6582 6.53947 12.3495 6.36412 12.1742 6.07034C11.8334 5.49905 11.2518 4.68259 10.4167 4.03671C9.47981 3.31229 8.41876 2.94492 7.26329 2.94492Z" fill="#303030"/>
</svg>
