<svg width="29" height="29" viewBox="0 0 29 29" fill="none" xmlns="http://www.w3.org/2000/svg">
<path d="M8.67338 12.0225C10.5225 12.0225 12.0216 10.5235 12.0216 8.67435C12.0216 6.8252 10.5225 5.32617 8.67338 5.32617C6.82423 5.32617 5.3252 6.8252 5.3252 8.67435C5.3252 10.5235 6.82423 12.0225 8.67338 12.0225Z" fill="#BB9B75"/>
<path d="M8.67338 23.6749C10.5225 23.6749 12.0216 22.1758 12.0216 20.3267C12.0216 18.4775 10.5225 16.9785 8.67338 16.9785C6.82423 16.9785 5.3252 18.4775 5.3252 20.3267C5.3252 22.1758 6.82423 23.6749 8.67338 23.6749Z" fill="#BB9B75"/>
<path d="M20.3262 12.0225C22.1754 12.0225 23.6744 10.5235 23.6744 8.67435C23.6744 6.8252 22.1754 5.32617 20.3262 5.32617C18.4771 5.32617 16.978 6.8252 16.978 8.67435C16.978 10.5235 18.4771 12.0225 20.3262 12.0225Z" fill="#BB9B75"/>
<path d="M20.3262 23.6749C22.1754 23.6749 23.6744 22.1758 23.6744 20.3267C23.6744 18.4775 22.1754 16.9785 20.3262 16.9785C18.4771 16.9785 16.978 18.4775 16.978 20.3267C16.978 22.1758 18.4771 23.6749 20.3262 23.6749Z" fill="#BB9B75"/>
</svg>
