<svg width="11" height="11" viewBox="0 0 11 11" fill="none" xmlns="http://www.w3.org/2000/svg">
<g clip-path="url(#clip0_157_3164)">
<path d="M9.3891 7.1109C8.79005 6.51187 8.07703 6.06841 7.29908 5.79996C8.13229 5.2261 8.67969 4.26568 8.67969 3.17969C8.67969 1.42641 7.25328 0 5.5 0C3.74672 0 2.32031 1.42641 2.32031 3.17969C2.32031 4.26568 2.86771 5.2261 3.70094 5.79996C2.92299 6.06841 2.20997 6.51187 1.61092 7.1109C0.572107 8.14973 0 9.5309 0 11H0.859375C0.859375 8.44115 2.94115 6.35938 5.5 6.35938C8.05885 6.35938 10.1406 8.44115 10.1406 11H11C11 9.5309 10.4279 8.14973 9.3891 7.1109ZM5.5 5.5C4.22058 5.5 3.17969 4.45913 3.17969 3.17969C3.17969 1.90025 4.22058 0.859375 5.5 0.859375C6.77942 0.859375 7.82031 1.90025 7.82031 3.17969C7.82031 4.45913 6.77942 5.5 5.5 5.5Z" fill="white"/>
</g>
<defs>
<clipPath id="clip0_157_3164">
<rect width="11" height="11" fill="white"/>
</clipPath>
</defs>
</svg>
