<svg width="26" height="26" viewBox="0 0 26 26" fill="none" xmlns="http://www.w3.org/2000/svg">
<path d="M8.37692 16.8088H8.37811C8.37911 16.8088 8.3801 16.8086 8.38109 16.8086H22.1914C22.5314 16.8086 22.8303 16.5831 22.9238 16.2561L25.9706 5.59209C26.0363 5.36218 25.9903 5.11502 25.8465 4.92419C25.7025 4.73337 25.4773 4.62109 25.2383 4.62109H6.62021L6.0757 2.1707C5.99814 1.82217 5.68909 1.57422 5.33203 1.57422H0.761719C0.340988 1.57422 0 1.91521 0 2.33594C0 2.75667 0.340988 3.09766 0.761719 3.09766H4.72107C4.81747 3.53188 7.32678 14.824 7.47119 15.4736C6.66167 15.8255 6.09375 16.6326 6.09375 17.5703C6.09375 18.8303 7.1189 19.8555 8.37891 19.8555H22.1914C22.6121 19.8555 22.9531 19.5145 22.9531 19.0938C22.9531 18.673 22.6121 18.332 22.1914 18.332H8.37891C7.95897 18.332 7.61719 17.9902 7.61719 17.5703C7.61719 17.151 7.95778 16.8098 8.37692 16.8088ZM24.2284 6.14453L21.6167 15.2852H8.98987L6.95862 6.14453H24.2284Z" fill="#303030"/>
<path d="M7.61719 22.1406C7.61719 23.4006 8.64233 24.4258 9.90234 24.4258C11.1624 24.4258 12.1875 23.4006 12.1875 22.1406C12.1875 20.8806 11.1624 19.8555 9.90234 19.8555C8.64233 19.8555 7.61719 20.8806 7.61719 22.1406ZM9.90234 21.3789C10.3223 21.3789 10.6641 21.7207 10.6641 22.1406C10.6641 22.5606 10.3223 22.9023 9.90234 22.9023C9.48241 22.9023 9.14062 22.5606 9.14062 22.1406C9.14062 21.7207 9.48241 21.3789 9.90234 21.3789Z" fill="#303030"/>
<path d="M18.3828 22.1406C18.3828 23.4006 19.408 24.4258 20.668 24.4258C21.928 24.4258 22.9531 23.4006 22.9531 22.1406C22.9531 20.8806 21.928 19.8555 20.668 19.8555C19.408 19.8555 18.3828 20.8806 18.3828 22.1406ZM20.668 21.3789C21.0879 21.3789 21.4297 21.7207 21.4297 22.1406C21.4297 22.5606 21.0879 22.9023 20.668 22.9023C20.248 22.9023 19.9062 22.5606 19.9062 22.1406C19.9062 21.7207 20.248 21.3789 20.668 21.3789Z" fill="#303030"/>
</svg>
