<svg width="23" height="23" viewBox="0 0 23 23" fill="none" xmlns="http://www.w3.org/2000/svg">
<g clip-path="url(#clip0_151_3336)">
<path d="M19.6318 14.8682C18.3792 13.6157 16.8883 12.6885 15.2617 12.1272C17.0039 10.9273 18.1484 8.91915 18.1484 6.64844C18.1484 2.9825 15.1659 0 11.5 0C7.83406 0 4.85156 2.9825 4.85156 6.64844C4.85156 8.91915 5.99613 10.9273 7.73833 12.1272C6.11171 12.6885 4.62084 13.6157 3.36829 14.8682C1.19622 17.0403 0 19.9282 0 23H1.79688C1.79688 17.6497 6.14967 13.2969 11.5 13.2969C16.8503 13.2969 21.2031 17.6497 21.2031 23H23C23 19.9282 21.8038 17.0403 19.6318 14.8682ZM11.5 11.5C8.82486 11.5 6.64844 9.32362 6.64844 6.64844C6.64844 3.97325 8.82486 1.79688 11.5 1.79688C14.1751 1.79688 16.3516 3.97325 16.3516 6.64844C16.3516 9.32362 14.1751 11.5 11.5 11.5Z" fill="#BB9B75"/>
</g>
<defs>
<clipPath id="clip0_151_3336">
<rect width="23" height="23" fill="white"/>
</clipPath>
</defs>
</svg>
