<svg width="19" height="19" viewBox="0 0 19 19" fill="none" xmlns="http://www.w3.org/2000/svg">
<path d="M7.676 10.4889C7.619 10.4889 6.365 10.4889 5.795 10.4889C5.491 10.4889 5.396 10.3749 5.396 10.0899C5.396 9.32992 5.396 8.55092 5.396 7.79092C5.396 7.48692 5.51 7.39192 5.795 7.39192H7.676C7.676 7.33492 7.676 6.23292 7.676 5.71992C7.676 4.95992 7.809 4.23792 8.189 3.57292C8.588 2.88892 9.158 2.43292 9.88 2.16692C10.355 1.99592 10.83 1.91992 11.343 1.91992H13.205C13.471 1.91992 13.585 2.03392 13.585 2.29992V4.46592C13.585 4.73192 13.471 4.84592 13.205 4.84592C12.692 4.84592 12.179 4.84592 11.666 4.86492C11.153 4.86492 10.887 5.11192 10.887 5.64392C10.868 6.21392 10.887 6.76492 10.887 7.35392H13.091C13.395 7.35392 13.509 7.46792 13.509 7.77192V10.0709C13.509 10.3749 13.414 10.4699 13.091 10.4699C12.407 10.4699 10.944 10.4699 10.887 10.4699V16.6639C10.887 16.9869 10.792 17.1009 10.45 17.1009C9.652 17.1009 8.873 17.1009 8.075 17.1009C7.79 17.1009 7.676 16.9869 7.676 16.7019C7.676 14.7069 7.676 10.5459 7.676 10.4889Z" fill="white"/>
</svg>
