<svg width="11" height="11" viewBox="0 0 11 11" fill="none" xmlns="http://www.w3.org/2000/svg">
<g clip-path="url(#clip0_151_3817)">
<path d="M10.1174 7.22024C9.4439 7.22024 8.78264 7.11491 8.15601 6.90783C7.84896 6.8031 7.47149 6.89918 7.28409 7.09165L6.04725 8.02533C4.61287 7.25966 3.72931 6.37639 2.9741 4.95278L3.88031 3.74816C4.11575 3.51304 4.2002 3.16958 4.09902 2.84731C3.89105 2.21739 3.7854 1.55644 3.7854 0.882693C3.78543 0.395971 3.38946 0 2.90277 0H0.882664C0.395971 0 0 0.395971 0 0.882664C0 6.46144 4.53859 11 10.1174 11C10.6041 11 11 10.604 11 10.1173V8.10288C11 7.61621 10.604 7.22024 10.1174 7.22024Z" fill="#CECECE"/>
</g>
<defs>
<clipPath id="clip0_151_3817">
<rect width="11" height="11" fill="white"/>
</clipPath>
</defs>
</svg>
