<svg width="12" height="12" viewBox="0 0 12 12" fill="none" xmlns="http://www.w3.org/2000/svg">
<g clip-path="url(#clip0_151_3848)">
<path d="M7.00287 7.35252C6.70432 7.55155 6.35754 7.65677 6 7.65677C5.64248 7.65677 5.2957 7.55155 4.99716 7.35252L0.0798984 4.07425C0.0526172 4.05606 0.0260391 4.0371 0 4.0176V9.38941C0 10.0053 0.499805 10.4941 1.10468 10.4941H10.8953C11.5112 10.4941 12 9.99428 12 9.38941V4.01758C11.9739 4.03712 11.9473 4.05613 11.9199 4.07434L7.00287 7.35252Z" fill="#CECECE"/>
<path d="M0.469922 3.48848L5.38718 6.76678C5.57332 6.89088 5.78665 6.95292 5.99998 6.95292C6.21333 6.95292 6.42668 6.89086 6.61282 6.76678L11.5301 3.48848C11.8243 3.29243 12 2.9643 12 2.61016C12 2.00123 11.5046 1.50586 10.8957 1.50586H1.1043C0.495398 1.50588 0 2.00126 0 2.61075C0 2.9643 0.175687 3.29243 0.469922 3.48848Z" fill="#CECECE"/>
</g>
<defs>
<clipPath id="clip0_151_3848">
<rect width="12" height="12" fill="white"/>
</clipPath>
</defs>
</svg>
